<?xml version="1.0" encoding="utf-8"?>
<!-- Generator: Adobe Illustrator 25.2.3, SVG Export Plug-In . SVG Version: 6.00 Build 0)  -->
<svg version="1.1" id="Layer_1" xmlns="http://www.w3.org/2000/svg" xmlns:xlink="http://www.w3.org/1999/xlink" x="0px" y="0px"
	 viewBox="0 0 18 17.3" style="enable-background:new 0 0 18 17.3;" xml:space="preserve">
<style type="text/css">
	.st0{fill:none;}
	.st1{fill:#FFFFFF;}
</style>
<g>
	<rect y="-13.1" class="st0" width="18" height="88"/>
	<path class="st1" d="M17.5,16.3l-4.8-4.8c2.5-3,2.2-7.4-0.8-10s-7.4-2.2-10,0.8s-2.2,7.4,0.8,10c2.6,2.3,6.5,2.3,9.2,0l4.8,4.8
		c0.2,0.2,0.6,0.2,0.8,0C17.7,16.9,17.8,16.6,17.5,16.3L17.5,16.3L17.5,16.3z M1.4,7c0-3.3,2.7-5.9,6-5.9s5.9,2.7,5.9,6
		S10.6,13,7.4,13C4.1,12.9,1.4,10.2,1.4,7z"/>
</g>
</svg>
